mtllib materials.mtl
v 0.7983097 -0.764174 -0.7491674
v 0.7983097 -0.764174 0.7508325
v 0.7983097 -0.6841741 0.7508325
v 0.7983097 -0.6841741 -0.7491674
v -0.8016903 -0.764174 -0.7491674
v -0.8016903 -0.6841741 -0.7491674
v -0.8016903 -0.6841741 0.7508325
v -0.8016903 -0.764174 0.7508325
v -0.801677 -0.7441807 -0.7491364
v -0.801677 -0.7441807 0.7508634
v -0.7216769 -0.7441807 0.7508634
v -0.7216769 -0.7441804 -0.7491364
v -0.8016769 0.7458205 -0.7491362
v -0.7216768 0.74582 -0.7491362
v -0.7216768 0.7458196 0.7508637
v -0.8016769 0.7458198 0.7508637
v 0.7883577 0.6858253 -0.7491301
v 0.7883577 0.6858251 0.7508698
v 0.7883577 0.7458253 0.7508698
v 0.7883577 0.7458255 -0.7491301
v -0.7616423 0.6858256 -0.7491301
v -0.7616423 0.7458258 -0.7491301
v -0.7616423 0.7458255 0.7508698
v -0.7616423 0.6858253 0.7508698
v 0.7183508 -0.6941988 -0.7491682
v 0.7183505 -0.6941991 0.7508318
v 0.7983506 -0.6941996 0.7508318
v 0.7983508 -0.6941988 -0.7491682
v 0.7183509 0.7458017 -0.7491679
v 0.798351 0.7458019 -0.7491679
v 0.7983508 0.7458022 0.7508321
v 0.7183506 0.7458019 0.7508321
v 0.7233238 -0.7591989 0.6908463
v -0.7766768 -0.7591991 0.6908454
v -0.7766769 -0.7591991 0.7508456
v 0.7233237 -0.7591989 0.7508464
v 0.7233238 0.7308013 0.6908464
v 0.7233238 0.7308013 0.7508466
v -0.7766764 0.7308013 0.7508459
v -0.7766764 0.7308013 0.6908457
v 0.7933545 -0.7491767 -0.7492039
v -0.7566471 -0.7491775 -0.7492051
v -0.7566465 -0.749177 -0.6992049
v 0.7933543 -0.7491767 -0.699204
v 0.7933551 0.7408242 -0.7492036
v 0.7933546 0.7408237 -0.6992034
v -0.7566456 0.740824 -0.6992042
v -0.7566458 0.740824 -0.7492048
vn 1 0 0
vn 1 0 0
vn -1 0 0
vn -1 0 0
vn 0 -1 0
vn 0 -1 0
vn 0 1 0
vn 0 1 0
vn 0 0 -1
vn 0 0 -1
vn 0 0 1
vn 0 0 1
vn 0 -1 0
vn 2.98023E-06 -1 -1.589457E-07
vn 5.960461E-06 1 3.178914E-07
vn 2.98023E-06 1 4.768372E-07
vn -1 8.000617E-08 3.906552E-14
vn -1 8.000621E-08 0
vn 1 -8.000622E-08 -1.271665E-14
vn 1 -8.000621E-08 -2.604369E-14
vn -4.768739E-13 1.600124E-07 -1
vn 9.766373E-13 1.600123E-07 -1
vn -4.883189E-13 -1.600124E-07 1
vn 0 -1.600124E-07 1
vn 1 0 0
vn 1 0 0
vn -1 0 0
vn -1 0 0
vn -1.538184E-07 -1 -1.589457E-07
vn -1.538184E-07 -1 -1.589457E-07
vn 1.538184E-07 1 1.589457E-07
vn 1.538184E-07 1 1.589457E-07
vn 0 0 -1
vn 0 0 -1
vn 0 0 1
vn 0 0 1
vn -5.960457E-06 -1 -1.589468E-07
vn 0 -1 -4.768372E-07
vn -2.98023E-06 1 -1.589461E-07
vn -2.980229E-06 1 -1.589462E-07
vn -1 1.138283E-07 -1.788139E-07
vn -1 1.241763E-07 -1.88748E-07
vn 1 -1.241762E-07 1.589457E-07
vn 1 -1.034803E-07 1.390775E-07
vn 0 1.655684E-07 -1
vn -5.052744E-13 1.655684E-07 -1
vn 5.052738E-13 -1.655683E-07 1
vn -9.868625E-13 -1.655683E-07 1
vn 1.589457E-07 -1 3.233748E-13
vn 1.589457E-07 -1 1.578979E-13
vn 0 1 0
vn 0 1 0
vn 4.371007E-07 8.00062E-08 -1
vn 5.960462E-07 2.400185E-07 -1
vn -5.960462E-07 -2.400184E-07 1
vn -4.76837E-07 -1.200093E-07 1
vn 1 -4.000323E-08 9.934078E-07
vn 1 -4.000319E-08 9.934067E-07
vn -1 2.400186E-07 0
vn -1 3.200253E-07 -1.986815E-06
vn 4.614471E-07 -1 9.5367E-06
vn 1.538184E-07 -1 5.500991E-13
vn 1.538133E-07 1 9.536708E-06
vn -1.538183E-07 1 7.51058E-13
vn 7.690917E-07 2.000152E-07 -1
vn 8.075459E-07 2.400178E-07 -1
vn -5.768188E-07 -4.800368E-07 1
vn -5.383645E-07 -4.400341E-07 1
vn 1 -2.000171E-07 3.576291E-06
vn 1 -4.000328E-07 9.536702E-06
vn -1 8.800666E-07 4.768319E-06
vn -1 6.400437E-07 1.192088E-05
vt 0.5396983 0.6037508
vt 0.6007283 0.5601579
vt 0.6030533 0.5634128
vt 0.5396983 0.6037508
vt 0.6030533 0.5634128
vt 0.5420233 0.6070057
vt 0.4603017 0.6037508
vt 0.4579767 0.6070057
vt 0.3969467 0.5634128
vt 0.4603017 0.6037508
vt 0.3969467 0.5634128
vt 0.3992717 0.5601579
vt 0.478844 0.5240133
vt 0.4519371 0.448674
vt 0.5225677 0.4234487
vt 0.478844 0.5240133
vt 0.5225677 0.4234487
vt 0.5494747 0.4987881
vt 0.521156 0.5240133
vt 0.4505253 0.4987881
vt 0.4774323 0.4234487
vt 0.521156 0.5240133
vt 0.4774323 0.4234487
vt 0.5480629 0.448674
vt 0.4107807 0.5619379
vt 0.407203 0.5637267
vt 0.3714259 0.4921725
vt 0.4107807 0.5619379
vt 0.3714259 0.4921725
vt 0.3750036 0.4903837
vt 0.5892193 0.5619379
vt 0.6249964 0.4903837
vt 0.6285741 0.4921725
vt 0.5892193 0.5619379
vt 0.6285741 0.4921725
vt 0.592797 0.5637267
vt 0.4519388 0.4486741
vt 0.5225694 0.4234488
vt 0.5239148 0.4272158
vt 0.4519389 0.4486744
vt 0.5239149 0.4272161
vt 0.4532842 0.4524413
vt 0.5480617 0.4486731
vt 0.5467163 0.4524401
vt 0.4760857 0.4272148
vt 0.5480615 0.4486736
vt 0.4760855 0.4272153
vt 0.4774309 0.4234483
vt 0.4597194 0.6045633
vt 0.4164171 0.6651865
vt 0.3553871 0.6215936
vt 0.4597194 0.6045633
vt 0.3553871 0.6215936
vt 0.3986894 0.5609704
vt 0.5402806 0.6045633
vt 0.6013106 0.5609704
vt 0.6446129 0.6215936
vt 0.5402806 0.6045633
vt 0.6446129 0.6215936
vt 0.5835829 0.6651865
vt 0.3741098 0.4908313
vt 0.3758986 0.494409
vt 0.3092638 0.5277265
vt 0.3741098 0.4908313
vt 0.3092638 0.5277265
vt 0.3074749 0.5241488
vt 0.6258903 0.4908313
vt 0.6925251 0.5241488
vt 0.6907362 0.5277265
vt 0.6258903 0.4908313
vt 0.6907362 0.5277265
vt 0.6241014 0.494409
vt 0.5818396 0.6627453
vt 0.6428696 0.6191524
vt 0.6446133 0.6215937
vt 0.5818396 0.6627453
vt 0.6446133 0.6215937
vt 0.5835833 0.6651865
vt 0.4181604 0.6627453
vt 0.4164167 0.6651865
vt 0.3553867 0.6215937
vt 0.4181604 0.6627453
vt 0.3553867 0.6215937
vt 0.3571304 0.6191524
vt 0.4786784 0.5235441
vt 0.4526123 0.450559
vt 0.523243 0.4253338
vt 0.4786784 0.5235441
vt 0.523243 0.4253338
vt 0.549309 0.4983188
vt 0.5213217 0.5235441
vt 0.450691 0.4983188
vt 0.4767571 0.4253338
vt 0.5213217 0.5235441
vt 0.4767571 0.4253338
vt 0.5473877 0.450559
vt 0.3457122 0.5939158
vt 0.3430289 0.5952574
vt 0.3083698 0.5259393
vt 0.3457122 0.5939158
vt 0.3083698 0.5259393
vt 0.3110532 0.5245976
vt 0.6542878 0.5939158
vt 0.6889468 0.5245976
vt 0.6916301 0.5259393
vt 0.6542878 0.5939158
vt 0.6916301 0.5259393
vt 0.6569711 0.5952574
vt 0.4774991 0.5202477
vt 0.5481297 0.4950224
vt 0.5494751 0.4987893
vt 0.4774993 0.5202483
vt 0.5494753 0.49879
vt 0.4788446 0.5240153
vt 0.5225005 0.5202488
vt 0.5211551 0.5240157
vt 0.4505245 0.4987906
vt 0.5225005 0.5202488
vt 0.4505245 0.4987906
vt 0.4518698 0.4950236
vt 0.4582681 0.6065978
vt 0.4164189 0.6651866
vt 0.3553889 0.6215938
vt 0.4582681 0.6065978
vt 0.3553889 0.6215938
vt 0.3972381 0.5630049
vt 0.5417319 0.6065978
vt 0.6027619 0.5630049
vt 0.6446111 0.6215938
vt 0.5417319 0.6065978
vt 0.6446111 0.6215938
vt 0.5835811 0.6651866
vt 0.4058634 0.5599266
vt 0.4076522 0.5635044
vt 0.3432534 0.5957038
vt 0.4058634 0.5599266
vt 0.3432534 0.5957038
vt 0.3414646 0.5921261
vt 0.5941367 0.5599266
vt 0.6585354 0.5921261
vt 0.6567466 0.5957038
vt 0.5941367 0.5599266
vt 0.6567466 0.5957038
vt 0.5923477 0.5635043
vt 0.5453891 0.496266
vt 0.5201638 0.4256353
vt 0.522989 0.4246263
vt 0.5453891 0.496266
vt 0.522989 0.4246263
vt 0.5482143 0.495257
vt 0.4546109 0.496266
vt 0.4517857 0.495257
vt 0.477011 0.4246263
vt 0.4546109 0.496266
vt 0.477011 0.4246263
vt 0.4798362 0.4256353
vt 0.4088815 0.5586956
vt 0.3422466 0.5920131
vt 0.3087056 0.524931
vt 0.4088815 0.5586957
vt 0.3087056 0.524931
vt 0.3753404 0.4916136
vt 0.5911185 0.5586957
vt 0.6246595 0.4916136
vt 0.6912944 0.524931
vt 0.5911185 0.5586957
vt 0.6912944 0.524931
vt 0.6577533 0.5920131
vt 0.5984324 0.5621035
vt 0.6008735 0.5603598
vt 0.6441759 0.6209829
vt 0.5984324 0.5621035
vt 0.6441759 0.6209829
vt 0.6417347 0.6227266
vt 0.4015678 0.5621036
vt 0.3582655 0.6227268
vt 0.3558243 0.6209831
vt 0.4015675 0.5621033
vt 0.3558239 0.6209826
vt 0.3991263 0.5603596
vt 0.4787599 0.5237802
vt 0.452694 0.450795
vt 0.4550484 0.4499542
vt 0.478759 0.5237806
vt 0.4550472 0.4499547
vt 0.4811133 0.5229397
vt 0.5212426 0.5237812
vt 0.5188882 0.5229404
vt 0.5449547 0.4499555
vt 0.521241 0.5237806
vt 0.5449528 0.4499548
vt 0.5473071 0.4507956
vt 0.4099992 0.5620516
vt 0.3433644 0.595369
vt 0.3087053 0.5260509
vt 0.4099992 0.5620516
vt 0.3087053 0.5260509
vt 0.3753401 0.4927334
vt 0.5900008 0.5620515
vt 0.6246598 0.4927334
vt 0.6912947 0.5260509
vt 0.5900008 0.5620515
vt 0.6912947 0.5260509
vt 0.6566356 0.595369
vt 0.5401331 0.6043618
vt 0.5421674 0.6029087
vt 0.58547 0.6635317
vt 0.5401338 0.6043616
vt 0.5854712 0.6635311
vt 0.5834369 0.6649842
vt 0.4598684 0.6043624
vt 0.4165665 0.6649859
vt 0.4145322 0.6635328
vt 0.4598697 0.604363
vt 0.414534 0.6635339
vt 0.4578353 0.60291
o group244286910
g mesh244286910
usemtl mat21
f 3/3/1 2/2/1 1/1/1
f 4/6/2 3/5/2 1/4/2
f 7/9/3 6/8/3 5/7/3
f 8/12/4 7/11/4 5/10/4
f 8/15/5 5/14/5 1/13/5
f 2/18/6 8/17/6 1/16/6
f 7/21/7 3/20/7 4/19/7
f 6/24/8 7/23/8 4/22/8
f 6/27/9 4/26/9 1/25/9
f 5/30/10 6/29/10 1/28/10
f 7/33/11 8/32/11 2/31/11
f 3/36/12 7/35/12 2/34/12
o group946279335
g mesh946279335
usemtl mat21
f 11/39/13 10/38/13 9/37/13
f 12/42/14 11/41/14 9/40/14
f 15/45/15 14/44/15 13/43/15
f 16/48/16 15/47/16 13/46/16
f 16/51/17 13/50/17 9/49/17
f 10/54/18 16/53/18 9/52/18
f 15/57/19 11/56/19 12/55/19
f 14/60/20 15/59/20 12/58/20
f 14/63/21 12/62/21 9/61/21
f 13/66/22 14/65/22 9/64/22
f 15/69/23 16/68/23 10/67/23
f 11/72/24 15/71/24 10/70/24
o group2146702881
g mesh2146702881
usemtl mat21
f 19/75/25 18/74/25 17/73/25
f 20/78/26 19/77/26 17/76/26
f 23/81/27 22/80/27 21/79/27
f 24/84/28 23/83/28 21/82/28
f 24/87/29 21/86/29 17/85/29
f 18/90/30 24/89/30 17/88/30
f 23/93/31 19/92/31 20/91/31
f 22/96/32 23/95/32 20/94/32
f 22/99/33 20/98/33 17/97/33
f 21/102/34 22/101/34 17/100/34
f 23/105/35 24/104/35 18/103/35
f 19/108/36 23/107/36 18/106/36
o group732154330
g mesh732154330
usemtl mat21
f 27/111/37 26/110/37 25/109/37
f 28/114/38 27/113/38 25/112/38
f 31/117/39 30/116/39 29/115/39
f 32/120/40 31/119/40 29/118/40
f 32/123/41 29/122/41 25/121/41
f 26/126/42 32/125/42 25/124/42
f 31/129/43 27/128/43 28/127/43
f 30/132/44 31/131/44 28/130/44
f 30/135/45 28/134/45 25/133/45
f 29/138/46 30/137/46 25/136/46
f 31/141/47 32/140/47 26/139/47
f 27/144/48 31/143/48 26/142/48
o group1634571040
g mesh1634571040
usemtl mat21
f 35/147/49 34/146/49 33/145/49
f 36/150/50 35/149/50 33/148/50
f 39/153/51 38/152/51 37/151/51
f 40/156/52 39/155/52 37/154/52
f 40/159/53 37/158/53 33/157/53
f 34/162/54 40/161/54 33/160/54
f 39/165/55 35/164/55 36/163/55
f 38/168/56 39/167/56 36/166/56
f 38/171/57 36/170/57 33/169/57
f 37/174/58 38/173/58 33/172/58
f 39/177/59 40/176/59 34/175/59
f 35/180/60 39/179/60 34/178/60
o group1077071814
g mesh1077071814
usemtl mat21
f 43/183/61 42/182/61 41/181/61
f 44/186/62 43/185/62 41/184/62
f 47/189/63 46/188/63 45/187/63
f 48/192/64 47/191/64 45/190/64
f 48/195/65 45/194/65 41/193/65
f 42/198/66 48/197/66 41/196/66
f 47/201/67 43/200/67 44/199/67
f 46/204/68 47/203/68 44/202/68
f 46/207/69 44/206/69 41/205/69
f 45/210/70 46/209/70 41/208/70
f 47/213/71 48/212/71 42/211/71
f 43/216/72 47/215/72 42/214/72
